# AST/ASF file generated using VICON BodyLanguage
# -----------------------------------------------
:version 1.10
:name VICON
:units
  mass 1.0
  length 0.45
  angle deg
:documentation
   .ast/.asf automatically generated from VICON data using
   VICON BodyBuilder and BodyLanguage model FoxedUp or BRILLIANT.MOD
:root
   order TX TY TZ RX RY RZ
   axis XYZ
   position 0 0 0  
   orientation 0 0 0 
:bonedata
  begin
     id 1 
     name lhipjoint
     direction 0.722297 -0.617336 0.311742 
     length 2.6635 
     axis 0 0 0  XYZ
  end
  begin
     id 2 
     name lfemur
     direction 0.34202 -0.939693 0  
     length 7.39349  
     axis 0 0 20  XYZ
    dof rx ry rz
    limits (-160.0 20.0)
           (-70.0 70.0)
           (-60.0 70.0)
  end
  begin
     id 3 
     name ltibia
     direction 0.34202 -0.939693 0   
     length 7.36294   
     axis 0 0 20   XYZ
    dof rx
    limits (-10.0 170.0)
  end
  begin
     id 4 
     name lfoot
     direction 0.104879 -0.288152 0.951824   
     length 2.16981   
     axis -90 7.62852e-016 20   XYZ
    dof rx rz
    limits (-45.0 90.0)
           (-70.0 20.0)
  end
  begin
     id 5 
     name ltoes
     direction 1.53586e-011 -4.21895e-011 1   
     length 1.08218   
     axis -90 7.62852e-016 20   XYZ
    dof rx
    limits (-90.0 20.0)
  end
  begin
     id 6 
     name rhipjoint
     direction -0.75102 -0.589393 0.297631   
     length 2.78977  
     axis 0 0 0  XYZ 
  end
  begin
     id 7 
     name rfemur
     direction -0.34202 -0.939693 0   
     length 7.46076   
     axis 0 0 -20   XYZ
    dof rx ry rz
    limits (-160.0 20.0)
           (-70.0 70.0)
           (-70.0 60.0)
  end
  begin
     id 8 
     name rtibia
     direction -0.34202 -0.939693 0   
     length 7.31726   
     axis 0 0 -20   XYZ
    dof rx
    limits (-10.0 170.0)
 end
 begin
     id 9 
     name rfoot
     direction -0.107991 -0.296704 0.948844   
     length 2.09388  
     axis -90 -7.62852e-016 -20   XYZ
    dof rx rz
    limits (-45.0 90.0)
           (-20.0 70.0)
  end
  begin
     id 10 
     name rtoes
     direction -1.53559e-011 -4.21911e-011 1   
     length 1.04433   
     axis -90 -7.62852e-016 -20   XYZ
    dof rx
    limits (-90.0 20.0)
  end
  begin
     id 11 
     name lowerback
     direction 0.0165164 0.98272 0.184358   
     length 1.71896   
     axis 0 0 0   XYZ
    dof rx ry rz
    limits (-20.0 45.0)
           (-30.0 30.0)
           (-30.0 30.0)
  end
  begin
     id 12 
     name upperback
     direction -0.00887249 0.992297 0.123566   
     length 1.71504   
     axis 0 0 0   XYZ
    dof rx ry rz
    limits (-20.0 45.0)
           (-30.0 30.0)
           (-30.0 30.0)
  end
  begin
     id 13 
     name thorax
     direction -0.0157026 0.998908 0.0440032   
     length 1.77022   
     axis 0 0 0   XYZ
    dof rx ry rz
    limits (-20.0 45.0)
           (-30.0 30.0)
           (-30.0 30.0)
  end
  begin
     id 14 
     name lowerneck
     direction -0.0238856 0.998137 0.0561411   
     length 1.89341   
     axis 0 0 0   XYZ
    dof rx ry rz
    limits (-20.0 45.0)
           (-30.0 30.0)
           (-30.0 30.0)
  end
  begin
     id 15 
     name upperneck
     direction 0.0276574 0.952253 -0.304056   
     length 1.86999   
     axis 0 0 0   XYZ
    dof rx ry rz
    limits (-20.0 45.0)
           (-30.0 30.0)
           (-30.0 30.0)
  end
  begin
     id 16
     name head
     direction 0.00800083 0.994258 -0.106712  
     length 1.91492  
     axis 0 0 0   XYZ
    dof rx ry rz
    limits (-20.0 45.0)
           (-30.0 30.0)
           (-30.0 30.0)
  end
  begin
     id 17 
     name lclavicle
     direction 0.97203 0.225407 0.06595  
     length 3.34889  
     axis 0 0 0   XYZ
    dof ry rz
    limits (-20.0 10.0)
           (0.0 20.0)
  end
  begin
     id 18 
     name lhumerus
     direction 1 -4.48973e-011 2.20267e-027   
     length 4.85645   
     axis 180 -30 -90   XYZ
    dof rx ry rz
    limits (-60.0 90.0)
           (-90.0 90.0)
           (-90.0 90.0)
  end
  begin
     id 19
     name lradius
     direction 1 -4.4897e-011 4.60472e-027   
     length 2.79874   
     axis 180 -30 -90   XYZ
    dof rx
    limits (-10.0 170.0)
  end
  begin
     id 20
     name lwrist
     direction 1 -4.48952e-011 1.14928e-026   
     length 1.39937   
     axis -6.29373e-015 90 90   XYZ
    dof ry
    limits (-180.0 0.0)
 end
  begin
     id 21 
     name lhand
     direction 1 -4.48967e-011 2.29886e-026   
     length 0.573398   
     axis -1.46689e-014 90 90   XYZ
    dof rx rz
    limits (-90.0 90.0)
           (-45.0 45.0)
  end
  begin
     id 22 
     name lfingers
     direction 1 -4.48955e-011 4.59726e-026   
     length 0.462289   
     axis -2.93383e-014 90 90   XYZ
    dof rx
    limits (0.0 90.0)
  end
  begin
     id 23
     name lthumb
     direction 0.707107 -6.34866e-011 0.707107   
     length 0.663757   
     axis -90 45 5.69224e-014   XYZ
    dof rx rz
    limits (-45.0 45.0)
           (-45.0 45.0)
  end
  begin
     id 24 
     name rclavicle
     direction -0.981571 0.157346 0.108443   
     length 3.35257  
     axis 0 0 0   XYZ 
    dof ry rz
    limits (-10.0 20.0)
           (-20.0 0.0)
  end
  begin
     id 25 
     name rhumerus
     direction -1 -4.48967e-011 8.58308e-029  
     length 4.67018   
     axis 180 30 90   XYZ
    dof rx ry rz
    limits (-90.0 60.0)
           (-90.0 90.0)
           (-90.0 90.0)
  end
  begin
     id 26 
     name rradius
     direction -1 -4.48958e-011 4.52548e-027   
     length 2.65534   
     axis 180 30 90   XYZ
    dof rx
    limits (-10.0 170.0)
  end
  begin
     id 27 
     name rwrist
     direction -1 -4.48977e-011 1.14952e-026   
     length 1.32767   
     axis -6.29373e-015 -90 -90   XYZ
    dof ry
    limits (-180.0 0.0)
  end
  begin
     id 28
     name rhand
     direction -1 -4.48924e-011 2.29804e-026   
     length 0.594069   
     axis -1.46689e-014 -90 -90   XYZ
    dof rx rz
    limits (-90.0 90.0)
           (-45.0 45.0)
  end
  begin
     id 29
     name rfingers
     direction -1 -4.48998e-011 4.59888e-026   
     length 0.478954   
     axis -2.93383e-014 -90 -90   XYZ
    dof rx
    limits (0.0 90.0)
  end
  begin
     id 30
     name rthumb
     direction -0.707107 -6.34933e-011 0.707107   
     length 0.687685   
     axis -90 -45 -5.69224e-014   XYZ
    dof rx rz
    limits (-45.0 45.0)
           (-45.0 45.0)
  end
:hierarchy
  begin
    root lhipjoint rhipjoint lowerback
    lhipjoint lfemur
    lfemur ltibia
    ltibia lfoot
    lfoot ltoes
    rhipjoint rfemur
    rfemur rtibia
    rtibia rfoot
    rfoot rtoes
    lowerback upperback
    upperback thorax
    thorax lowerneck lclavicle rclavicle
    lowerneck upperneck
    upperneck head
    lclavicle lhumerus
    lhumerus lradius
    lradius lwrist
    lwrist lhand lthumb
    lhand lfingers
    rclavicle rhumerus
    rhumerus rradius
    rradius rwrist
    rwrist rhand rthumb
    rhand rfingers
  end

#!OML:ASF E:\pregnant2\Project 1\Capture day 1\Session 1\pregnant2.ASF
:FULLY-SPECIFIED
:DEGREES
973
root -3.43146 3.57607 17.1727 -5.34574 -8.73363 -15.3855
lowerback -3.80331 0.495882 -0.0887584
upperback -6.00335 0.797123 4.99292
thorax -4.16107 0.525417 5.24999
lowerneck -12.9934 -2.67703 -6.16242
upperneck 47.7108 -2.48598 0.305868
head 22.0771 -2.21032 0.772272
rclavicle -1.51076e-014 1.51076e-014
rhumerus -80.2416 -2.82374 -75.735
rradius 25.7224
rwrist 9.10977
rhand -40.8829 -60.2676
rfingers 7.12502
rthumb -13.8187 -449.789
lclavicle -1.51076e-014 1.51076e-014
lhumerus -82.9937 -4.42462 99.1838
lradius 47.5472
lwrist 36.8514
lhand -39.0938 85.5389
lfingers 7.12502
lthumb -12.0941 244.831
rfemur -136.085 -11.7228 43.2705
rtibia 140.075
rfoot 4.45263 9.05054
rtoes 4.86404
lfemur -74.2414 2.76982 6.80271
ltibia 1.59028e-015
lfoot -18.8619 36.8347
ltoes 53.0314
974
root -3.4225 3.57453 17.1743 -5.29947 -8.77338 -15.479
lowerback -3.77668 0.483245 -0.0773496
upperback -6.01574 0.780873 4.98077
thorax -4.18711 0.516871 5.23058
lowerneck -13.0282 -2.6757 -6.14928
upperneck 47.6985 -2.51439 0.35954
head 22.0819 -2.21242 0.791866
rclavicle 2.10712e-014 7.95139e-015
rhumerus -80.1424 -2.82512 -75.6357
rradius 25.5921
rwrist 9.24408
rhand -40.8756 -60.0812
rfingers 7.12502
rthumb -13.8117 -449.603
lclavicle 2.10712e-014 7.95139e-015
lhumerus -83.2987 -4.47025 99.3674
lradius 48.0732
lwrist 37.1071
lhand -38.9892 85.5358
lfingers 7.12502
lthumb -11.9932 244.828
rfemur -136.06 -11.6949 43.231
rtibia 140.038
rfoot 4.48332 9.05919
rtoes 4.89377
lfemur -74.2664 2.74559 7.03883
ltibia 7.31528e-014
lfoot -19.3269 37.1623
ltoes 52.9358
975
root -3.41387 3.5726 17.1759 -5.25663 -8.81807 -15.5876
lowerback -3.74637 0.469948 -0.0525754
upperback -6.03007 0.763922 4.97347
thorax -4.21711 0.50758 5.2087
lowerneck -13.0529 -2.66918 -6.12379
upperneck 47.6909 -2.53722 0.408112
head 22.0858 -2.21088 0.807638
rclavicle -1.39149e-014 -1.66979e-014
rhumerus -80.0557 -2.81302 -75.5605
rradius 25.4728
rwrist 9.35838
rhand -40.8753 -59.8976
rfingers 7.12502
rthumb -13.8115 -449.419
lclavicle -1.39149e-014 -1.66979e-014
lhumerus -83.6498 -4.51326 99.5546
lradius 48.6859
lwrist 37.3739
lhand -38.8462 85.5746
lfingers 7.12502
lthumb -11.8554 244.781
rfemur -136.024 -11.6561 43.1985
rtibia 139.999
rfoot 4.5119 9.06445
rtoes 4.90429
lfemur -74.2883 2.72585 7.29128
ltibia 2.38542e-014
lfoot -19.7693 37.5194
ltoes 52.8328
976
root -3.40579 3.57047 17.1775 -5.21857 -8.87201 -15.7185
lowerback -3.71186 0.457555 -0.0103342
upperback -6.04454 0.748352 4.97308
thorax -4.24967 0.498414 5.18422
lowerneck -13.0681 -2.65789 -6.0852
upperneck 47.6889 -2.55512 0.450974
head 22.0898 -2.20591 0.818962
rclavicle 6.36111e-015 -7.95139e-015
rhumerus -79.9782 -2.7921 -75.5051
rradius 25.3625
rwrist 9.45789
rhand -40.8854 -59.7148
rfingers 7.12502
rthumb -13.8212 -449.236
lclavicle 6.36111e-015 -7.95139e-015
lhumerus -84.0394 -4.55253 99.7464
lradius 49.3632
lwrist 37.6306
lhand -38.7227 85.6172
lfingers 7.12502
lthumb -11.7363 244.732
rfemur -135.962 -11.595 43.1724
rtibia 139.955
rfoot 4.53574 9.05939
rtoes 4.88847
lfemur -74.3033 2.71436 7.56824
ltibia -4.77083e-015
lfoot -20.1781 37.914
ltoes 52.7218
977
root -3.39829 3.56814 17.1791 -5.18451 -8.93134 -15.8736
lowerback -3.67625 0.446841 0.0514205
upperback -6.05851 0.735081 4.97848
thorax -4.28239 0.489669 5.15476
lowerneck -13.0743 -2.64347 -6.03439
upperneck 47.6943 -2.57139 0.490182
head 22.0962 -2.19866 0.826393
rclavicle -2.0276e-014 3.57812e-014
rhumerus -79.91 -2.76794 -75.4679
rradius 25.2621
rwrist 9.54179
rhand -40.8856 -59.5741
rfingers 7.12502
rthumb -13.8214 -449.095
lclavicle -2.0276e-014 3.57812e-014
lhumerus -84.4547 -4.59194 99.9479
lradius 50.0691
lwrist 37.8359
lhand -38.627 85.6301
lfingers 7.12502
lthumb -11.6439 244.713
rfemur -135.878 -11.5166 43.1586
rtibia 139.908
rfoot 4.55326 9.04579
rtoes 4.85023
lfemur -74.3147 2.70731 7.87085
ltibia -3.73715e-014
lfoot -20.5306 38.3586
ltoes 52.5941
978
root -3.3913 3.56565 17.1808 -5.15393 -8.99034 -16.0409
lowerback -3.6399 0.436327 0.118739
upperback -6.0766 0.722391 4.98741
thorax -4.31997 0.481152 5.12595
lowerneck -13.0616 -2.62719 -5.97648
upperneck 47.7096 -2.58778 0.52706
head 22.1037 -2.19074 0.831359
rclavicle -4.37326e-015 4.05521e-014
rhumerus -79.8546 -2.7405 -75.441
rradius 25.1657
rwrist 9.61635
rhand -40.8936 -59.4366
rfingers 7.12502
rthumb -13.829 -448.957
lclavicle -4.37326e-015 4.05521e-014
lhumerus -84.8864 -4.62482 100.156
lradius 50.7649
lwrist 37.9518
lhand -38.6025 85.6307
lfingers 7.12502
lthumb -11.6203 244.712
rfemur -135.784 -11.4304 43.1527
rtibia 139.859
rfoot 4.56881 9.0316
rtoes 4.77574
lfemur -74.3263 2.69975 8.18643
ltibia -2.14687e-014
lfoot -20.8218 38.8544
ltoes 52.4367
979
root -3.38482 3.56298 17.1826 -5.12322 -9.04215 -16.2086
lowerback -3.60249 0.427318 0.181631
upperback -6.10155 0.712073 4.99343
thorax -4.36565 0.4741 5.09671
lowerneck -13.0311 -2.61207 -5.91639
upperneck 47.7355 -2.61019 0.567582
head 22.1141 -2.18454 0.83676
rclavicle 1.70955e-014 7.95139e-015
rhumerus -79.813 -2.71855 -75.4249
rradius 25.0736
rwrist 9.67904
rhand -40.8991 -59.3085
rfingers 7.12502
rthumb -13.8344 -448.828
lclavicle 1.70955e-014 7.95139e-015
lhumerus -85.32 -4.6609 100.368
lradius 51.4247
lwrist 37.9616
lhand -38.6193 85.5956
lfingers 7.12502
lthumb -11.6366 244.748
rfemur -135.699 -11.3442 43.1488
rtibia 139.813
rfoot 4.58379 9.02521
rtoes 4.65004
lfemur -74.3446 2.68738 8.50183
ltibia -6.36111e-015
lfoot -21.0547 39.3988
ltoes 52.2517
980
root -3.37895 3.56018 17.1844 -5.09795 -9.08972 -16.3736
lowerback -3.56475 0.42203 0.236737
upperback -6.12958 0.706916 4.99582
thorax -4.41533 0.469949 5.0681
lowerneck -12.9858 -2.60073 -5.85717
upperneck 47.7732 -2.6421 0.612801
head 22.1303 -2.18183 0.842971
rclavicle -2.0276e-014 -6.04305e-014
rhumerus -79.7806 -2.70736 -75.4155
rradius 24.979
rwrist 9.73256
rhand -40.901 -59.1862
rfingers 7.12502
rthumb -13.8362 -448.706
lclavicle -2.0276e-014 -6.04305e-014
lhumerus -85.74 -4.7029 100.574
lradius 52.0294
lwrist 37.8689
lhand -38.636 85.5217
lfingers 7.12502
lthumb -11.6526 244.822
rfemur -135.613 -11.2551 43.1415
rtibia 139.768
rfoot 4.60351 9.01814
rtoes 4.49869
lfemur -74.3617 2.67141 8.81486
ltibia -7.31528e-014
lfoot -21.2517 39.9836
ltoes 52.0294
981
root -3.3732 3.55745 17.1861 -5.07493 -9.12799 -16.5131
lowerback -3.53013 0.419107 0.265829
upperback -6.16452 0.705074 4.98878
thorax -4.47104 0.468511 5.04445
lowerneck -12.9187 -2.59156 -5.80661
upperneck 47.8207 -2.68087 0.667972
head 22.148 -2.18241 0.855045
rclavicle -1.47101e-014 -3.89618e-014
rhumerus -79.7607 -2.70436 -75.4087
rradius 24.8835
rwrist 9.78279
rhand -40.8956 -59.0716
rfingers 7.12502
rthumb -13.831 -448.592
lclavicle -1.47101e-014 -3.89618e-014
lhumerus -86.1429 -4.74916 100.764
lradius 52.5927
lwrist 37.7223
lhand -38.6227 85.4186
lfingers 7.12502
lthumb -11.6398 244.925
rfemur -135.552 -11.1783 43.1174
rtibia 139.728
rfoot 4.63663 9.02592
rtoes 4.33789
lfemur -74.3814 2.64809 9.10124
ltibia 2.78299e-014
lfoot -21.4512 40.5818
ltoes 51.8016
982
root -3.36789 3.55477 17.1877 -5.05792 -9.16162 -16.6434
lowerback -3.49575 0.420017 0.281842
upperback -6.20258 0.708499 4.97821
thorax -4.53053 0.470287 5.02453
lowerneck -12.8359 -2.58608 -5.76447
upperneck 47.8782 -2.72643 0.728627
head 22.1699 -2.18676 0.870472
rclavicle 4.09496e-014 1.74931e-014
rhumerus -79.7518 -2.7112 -75.4032
rradius 24.787
rwrist 9.82792
rhand -40.8818 -58.9615
rfingers 7.12502
rthumb -13.8177 -448.483
lclavicle 4.09496e-014 1.74931e-014
lhumerus -86.5272 -4.80304 100.93
lradius 53.1316
lwrist 37.5812
lhand -38.5837 85.3218
lfingers 7.12502
lthumb -11.6022 245.019
rfemur -135.494 -11.104 43.0861
rtibia 139.688
rfoot 4.6737 9.04037
rtoes 4.14226
lfemur -74.4024 2.61816 9.37821
ltibia 7.15625e-015
lfoot -21.5738 41.2328
ltoes 51.5377
983
root -3.36288 3.55226 17.1893 -5.04815 -9.19378 -16.7681
lowerback -3.46376 0.424581 0.290306
upperback -6.2419 0.716826 4.96679
thorax -4.59055 0.47486 5.00802
lowerneck -12.7401 -2.58292 -5.72859
upperneck 47.9457 -2.77427 0.789058
head 22.1964 -2.19349 0.8867
rclavicle -1.11319e-014 -1.03368e-014
rhumerus -79.7534 -2.72428 -75.3966
rradius 24.6913
rwrist 9.86835
rhand -40.8659 -58.8451
rfingers 7.12502
rthumb -13.8024 -448.367
lclavicle -1.11319e-014 -1.03368e-014
lhumerus -86.8971 -4.86379 101.073
lradius 53.6687
lwrist 37.5052
lhand -38.5295 85.2638
lfingers 7.12502
lthumb -11.55 245.074
rfemur -135.435 -11.0345 43.0523
rtibia 139.647
rfoot 4.71763 9.06092
rtoes 3.95615
lfemur -74.4206 2.58413 9.64974
ltibia 9.54166e-015
lfoot -21.6487 41.9167
ltoes 51.2507
984
root -3.35795 3.54991 17.1912 -5.04072 -9.22032 -16.8842
lowerback -3.4436 0.43118 0.292462
upperback -6.28246 0.727518 4.95337
thorax -4.64549 0.480814 4.99301
lowerneck -12.6299 -2.58206 -5.70092
upperneck 48.0184 -2.8229 0.847849
head 22.2227 -2.20251 0.903692
rclavicle -1.59028e-015 4.6118e-014
rhumerus -79.7613 -2.74543 -75.3808
rradius 24.5927
rwrist 9.91295
rhand -40.8436 -58.7328
rfingers 7.12502
rthumb -13.7809 -448.256
lclavicle -1.59028e-015 4.6118e-014
lhumerus -87.2592 -4.93379 101.2
lradius 54.2242
lwrist 37.5458
lhand -38.5249 85.2771
lfingers 7.12502
lthumb -11.5455 245.061
rfemur -135.386 -10.9763 43.0177
rtibia 139.605
rfoot 4.77116 9.08756
rtoes 3.81675
lfemur -74.4432 2.54413 9.91206
ltibia -5.56597e-015
lfoot -21.6627 42.6321
ltoes 50.9382
985
root -3.35298 3.54785 17.1931 -5.03776 -9.24431 -16.9938
lowerback -3.4328 0.44008 0.29144
upperback -6.32016 0.740878 4.93983
thorax -4.69237 0.488133 4.97965
lowerneck -12.5184 -2.5819 -5.67537
upperneck 48.0963 -2.86719 0.897651
head 22.2529 -2.21151 0.917245
rclavicle 1.82882e-014 -2.22639e-014
rhumerus -79.7674 -2.77441 -75.3518
rradius 24.4909
rwrist 9.96403
rhand -40.8131 -58.6308
rfingers 7.12502
rthumb -13.7515 -448.156
lclavicle 1.82882e-014 -2.22639e-014
lhumerus -87.6098 -5.01391 101.324
lradius 54.7973
lwrist 37.7069
lhand -38.5739 85.3538
lfingers 7.12502
lthumb -11.5928 244.987
rfemur -135.339 -10.9276 42.9802
rtibia 139.556
rfoot 4.8213 9.11138
rtoes 3.8277
lfemur -74.4652 2.49989 10.1677
ltibia 3.26007e-014
lfoot -21.6273 43.3675
ltoes 50.6209
986
root -3.34784 3.54609 17.1951 -5.03981 -9.26549 -17.0943
lowerback -3.43265 0.450632 0.286058
upperback -6.35527 0.756022 4.92655
thorax -4.73073 0.49644 4.96903
lowerneck -12.4044 -2.58264 -5.65141
upperneck 48.1775 -2.90571 0.93434
head 22.2847 -2.22035 0.925301
rclavicle 1.86858e-014 -3.97569e-015
rhumerus -79.771 -2.80795 -75.3102
rradius 24.3841
rwrist 10.0148
rhand -40.7889 -58.5224
rfingers 7.12502
rthumb -13.7282 -448.05
lclavicle 1.86858e-014 -3.97569e-015
lhumerus -87.9534 -5.10138 101.455
lradius 55.3826
lwrist 37.9728
lhand -38.6861 85.4931
lfingers 7.12502
lthumb -11.7009 244.854
rfemur -135.291 -10.8878 42.9356
rtibia 139.49
rfoot 4.8791 9.13906
rtoes 3.92971
lfemur -74.4842 2.45134 10.4142
ltibia -1.51076e-014
lfoot -21.573 44.0995
ltoes 50.3038
987
root -3.34252 3.5447 17.1972 -5.04742 -9.28613 -17.1868
lowerback -3.44024 0.464773 0.280129
upperback -6.38351 0.77538 4.91131
thorax -4.75776 0.506631 4.95653
lowerneck -12.2975 -2.58533 -5.62508
upperneck 48.257 -2.94062 0.957605
head 22.317 -2.22888 0.926331
rclavicle 2.42517e-014 -2.22639e-014
rhumerus -79.7633 -2.85298 -75.2583
rradius 24.2747
rwrist 10.0664
rhand -40.7634 -58.4259
rfingers 7.12502
rthumb -13.7036 -447.955
lclavicle 2.42517e-014 -2.22639e-014
lhumerus -88.2798 -5.20247 101.592
lradius 55.9662
lwrist 38.2974
lhand -38.8128 85.6308
lfingers 7.12502
lthumb -11.8232 244.723
rfemur -135.233 -10.847 42.8762
rtibia 139.392
rfoot 4.94743 9.15338
rtoes 4.15537
lfemur -74.4959 2.40114 10.6529
ltibia 3.57812e-014
lfoot -21.5445 44.8084
ltoes 50.0238
